<?xml version="1.0" encoding="UTF-8"?>
<svg id="svg8372" width="1100" height="" version="1.1" viewBox="0 0 209.96 242.65" xmlns="http://www.w3.org/2000/svg">
 <defs id="defs8369">
  <filter id="filter2792" x="0" y="0" width="1" height="1" color-interpolation-filters="sRGB">
   <feTurbulence id="feTurbulence2788" baseFrequency="0.001 0.001" numOctaves="5" result="turbulence" seed="134" type="fractalNoise"/>
   <feDisplacementMap id="feDisplacementMap2790" in="SourceGraphic" in2="turbulence" scale="15.7321" xChannelSelector="R" yChannelSelector="G"/>
  </filter>
 </defs>
 <g id="layer2" transform="matrix(.2231 0 0 .2231 -114.9 .70954)" filter="url(#filter2792)">
  <path id="rect460" d="m623.02-3.1562c-2.2459-0.013041-4.0733 2.3139-3.5547 4.4941 0.14967 0.63709 0.55148 1.1857 0.36588 1.8677-0.34039 13.091-0.3524 26.189-0.45697 39.284-0.2448 45.791-0.30439 91.582-0.357 137.37-0.0903 95.796-0.0592 191.59-0.086 287.39-4e-3 28.714-9e-3 57.427-0.0128 86.141-5.5882 3.461-11.203 6.8995-16.449 10.872-12.87 9.6028-24.53 20.776-35.063 32.88-8.5248 9.8134-16.229 20.358-22.709 31.635-15.427 26.604-25.221 56.431-28.766 86.971-0.72356 8.6331-0.88748 17.303-0.92856 25.964 0.0512 8.5301 0.21351 17.07 0.93246 25.573 3.6658 31.529 13.988 62.302 30.301 89.545 8.9396 15.012 20.056 28.65 32.334 41.049 9.9698 9.9877 20.75 19.244 32.626 26.902 2.56 1.632 5.1501 3.217 7.7235 4.8284 0.0358 33.262-4e-3 66.524 0.097 99.786 0.0735 14.195 0.0987 28.394 0.47331 42.584 0.0394 1.0654 0.0647 2.1313 0.11916 3.196-1.0424 0.7351-1.0544 2.0939-0.99023 3.239 0.0599 1.3659-0.12464 2.7612 0.10156 4.1086 0.33662 1.3419 1.7855 2.076 3.1 1.8868h677.28c1.5185-0.024 2.6901-1.5236 2.4883-3.0016-0.052-1.6065 0.1038-3.234-0.078-4.8279-0.1651-0.661-0.5962-1.2488-1.1819-1.5963 0.4277-14.636 0.4225-29.281 0.532-43.923 0.2124-49.433 0.1117-98.867 0.136-148.3v-38.332c4.8079-5.9124 9.6441-11.82 13.864-18.176 10.652-15.716 18.438-33.364 22.852-51.831 2.2252-9.3103 3.766-18.807 4.2522-28.373 0.053-1.9563 0.02-3.9136 0.034-5.8704 7.1017-6.1178 14.268-12.174 20.949-18.757 24.684-24.062 45.007-52.484 60.433-83.281 13.464-26.927 23.225-55.741 28.52-85.389 2.4098-14.371 3.4814-28.934 3.9921-43.486 0.4337-14.423 0.3112-28.892-1.1249-43.26-3.9387-36.025-14.009-71.417-30.062-103.93-15.498-31.532-36.559-60.258-61.604-84.874-10.646-10.572-22.023-20.424-34.203-29.195-9.0162-6.5598-18.473-12.476-27.789-18.594-0.037-49.355-0.017-98.71-0.1015-148.07-0.064-22.055-0.1068-44.111-0.4289-66.163-0.079-4.1974-0.1348-8.397-0.3563-12.59 1.2432-1.8098 0.4335-4.5717-1.5938-5.4199-1.4011-0.60788-2.9746-0.23388-4.4527-0.33789-223.72 0.0026-447.44-0.00521-671.16 0.00391zm672.68 7.4746c-0.3701 10.976-0.3905 21.962-0.4778 32.944-0.2621 44.396-0.1407 88.793-0.1404 133.19 0.01 21.044 0.021 42.088 0.03 63.132 11.279 7.4092 22.767 14.531 33.534 22.685 13.799 10.316 26.443 22.105 38.28 34.604 7.7839 8.265 15.182 17.026 21.988 26.037 19.061 25.218 34.166 53.419 44.558 83.274 4.6712 13.409 8.4657 27.299 11.268 41.285 0.3902 1.9121 0.7527 3.8211 1.0998 5.7571 1.1625 6.6004 2 13.336 2.6245 19.903 0.6262 6.6062 1.0535 13.179 1.3156 19.831 0.3212 8.1038 0.3879 16.274 0.1591 24.424-0.1776 6.07-0.5273 12.274-1.1658 18.367-0.4553 4.2191-1.0074 8.2856-1.6397 12.495-3.6108 23.575-9.9774 46.72-18.849 68.857-13.706 34.18-33.483 66.183-58.422 93.409-6.9161 7.5573-14.369 14.885-22.129 21.696-3.8902 3.3997-7.8218 6.7517-11.728 10.133-0.012 4.2189 0.084 8.4479-0.3951 12.648-0.2428 2.5706-0.5591 5.2272-0.9155 7.687-0.6972 4.7586-1.6116 9.4844-2.709 14.167-0.2434 0.95751-0.5251 2.1886-0.809 3.2453-4.055 15.774-10.654 30.882-19.435 44.596-0.4622 0.71037-1.0749 1.6645-1.6073 2.4635-3.9426 5.986-8.3961 11.609-12.936 17.148-0.7329 0.90619-1.466 1.8122-2.1987 2.7186 0.01 49.958-0.021 99.915 0.017 149.86 0.054 24.364 0.075 48.729 0.4 73.091 0.053 3.5477 0.1184 7.0954 0.2349 10.642h-671.24c0.40789-12.251 0.40443-24.511 0.49095-36.768 0.11536-33.166 0.0167-66.332 0.0213-99.497-2e-3 -4.3198-5e-3 -8.6396-6e-3 -12.959-6.1226-3.8237-12.338-7.5249-18.1-11.889-10.789-8.0364-20.68-17.237-29.799-27.117-1.1515-1.2552-2.4367-2.6818-3.6149-4.0236-2.6029-2.9672-5.2676-6.1557-7.7598-9.3218-1.9862-2.5336-3.9672-5.1509-5.7801-7.7123-0.90458-1.257-1.7577-2.4908-2.6561-3.8171-13.503-20.162-23.428-42.673-29.563-66.137-1.7649-6.7368-3.2025-13.558-4.3332-20.43-0.23803-1.5402-0.52533-3.3012-0.74356-4.9319-0.92973-5.976-1.2234-12.024-1.3951-18.062-0.15581-6.049-0.18322-12.288-0.0555-18.41 0.15094-6.0911 0.31556-12.319 1.1625-18.425 0.37696-2.9011 0.81692-5.818 1.3012-8.6309 5.0745-29.69 16.145-58.399 32.692-83.591 1.1403-1.7202 2.3144-3.4377 3.4719-5.0494 1.0399-1.4657 2.076-2.8884 3.1922-4.3611 3.2449-4.3114 6.6641-8.4895 10.214-12.553 1.1449-1.3053 2.4459-2.7599 3.674-4.1002 1.9491-2.1193 4.0755-4.3572 6.157-6.4639 10.956-11.032 22.929-21.162 36.261-29.219 1.8912-1.1774 3.7809-2.3575 5.6734-3.5329 8e-3 -116.99 0.056-233.98 0.0302-350.98-0.0409-55.84-0.0624-111.68-0.35215-167.52-0.0913-11.598-0.12263-23.199-0.39286-34.795h671.5z" stroke-width=".955"/>
  <path id="path531" d="m1184.8 1078.2c-33.965-0.4542-81.675-1.1007-106.02-1.4368-24.347-0.336-136.86-0.935-250.03-1.331l-205.76-0.72-0.15473-35.101c-0.0851-19.305-0.24691-36.084-0.35955-37.287-0.11265-1.2023-0.28895-19.025-0.39177-39.605l-0.18696-37.419-8.4708-5.5932c-21.887-14.452-45.228-38.162-60.701-61.66-13.03-19.788-25.101-49.444-30.254-74.325-5.1817-25.019-5.2403-60.086-0.14099-84.431 4.4514-21.252 16.717-51.315 29.071-71.25 14.223-22.952 42.973-51.939 64.757-65.291l6.831-4.1868 0.47508-277.46c0.2613-152.6 0.67347-277.66 0.91595-277.9 0.93549-0.93549 333.23-0.9305 499.21 0.00751l174.33 0.98525-0.3352 114.33-0.3352 114.33 10.719 6.7693c47.275 29.856 86.782 72.281 108.2 116.19 20.351 41.724 29.886 74.008 32.602 110.39 3.9844 53.361 0.01 88.754-14.921 132.8-16.486 48.639-50.681 99.411-88.385 131.23l-8.3797 7.0715-1.2635 12.912c-2.9958 30.615-12.903 55.344-32.601 81.377l-8.1019 10.708 0.6491 49.954c0.9309 71.639 2.7335 164.03 3.4431 176.47l0.6077 10.657-26.636-0.1779c-14.65-0.098-54.426-0.5494-88.391-1.0037z" fill="#2b1100" stroke-width="1.0438"/>
 </g>
</svg>
